<svg width="200" height="200" viewBox="0 0 200 200" fill="none" xmlns="http://www.w3.org/2000/svg">
<g clip-path="url(#clip0_93_13)">
<path d="M155.439 73.1515C155.556 73.4354 155.566 73.9274 155.136 74.7523C154.712 75.567 153.934 76.5544 152.775 77.6958C150.464 79.9717 146.819 82.689 142.079 85.6703C132.614 91.6243 118.951 98.5293 103.338 104.961C87.7253 111.392 73.1634 116.114 62.2507 118.555C56.7863 119.777 52.2845 120.416 49.0412 120.428C47.4147 120.434 46.1667 120.281 45.2918 120.001C44.406 119.718 44.0665 119.362 43.9495 119.078C43.8325 118.794 43.8228 118.302 44.2521 117.477C44.6761 116.663 45.4545 115.675 46.6133 114.534C48.9239 112.258 52.5697 109.541 57.3094 106.559C66.7747 100.605 80.4373 93.7005 96.0502 87.2689C111.663 80.8374 126.225 76.1155 137.138 73.675C142.602 72.453 147.104 71.8139 150.347 71.8019C151.974 71.7959 153.222 71.9486 154.097 72.2282C154.982 72.5114 155.322 72.8675 155.439 73.1515Z" stroke="white" stroke-width="2"/>
<path d="M103.991 121.4C107.191 121.133 110.524 120.333 113.991 119C117.591 117.533 121.124 116 124.591 114.4C125.391 114 126.191 113.667 126.991 113.4C127.791 113 128.591 112.667 129.391 112.4C132.457 111.733 134.657 112.667 135.991 115.2C137.457 118 137.124 120.467 134.991 122.6C133.924 123.8 132.657 124.733 131.191 125.4C126.924 127.533 122.524 129.4 117.991 131C113.591 132.6 108.991 133.733 104.191 134.4C98.724 135.2 94.124 134.4 90.3906 132C86.6573 129.467 84.0573 125.533 82.5906 120.2C81.924 117.533 81.4573 114.933 81.1906 112.4C80.924 109.733 80.6573 107.067 80.3906 104.4C80.2573 103.6 80.0573 102.867 79.7906 102.2C79.524 101.533 79.0573 100.867 78.3906 100.2C75.1906 97.4 74.9906 94.3333 77.7906 91C78.4573 90.3333 78.924 89.6667 79.1906 89C79.5906 88.3333 79.724 87.5333 79.5906 86.6C79.324 83.9333 79.124 81.2667 78.9906 78.6C78.9906 75.8 78.8573 73.0667 78.5906 70.4C78.324 68.8 77.4573 67.7333 75.9906 67.2C73.0573 66.4 71.524 64.4 71.3906 61.2C71.2573 59.7333 71.5906 58.5333 72.3906 57.6C73.1906 56.5333 74.124 55.5333 75.1906 54.6C77.4573 52.6 79.8573 51.7333 82.3906 52C84.924 52.1333 87.4573 52.1333 89.9906 52C93.0573 51.7333 96.124 51.5333 99.1906 51.4C102.257 51.2667 105.324 51.0667 108.391 50.8C113.191 50.6667 115.791 52.5333 116.191 56.4C116.591 60.1333 114.457 62.5333 109.791 63.6C107.524 64 105.191 64.2667 102.791 64.4C100.524 64.4 98.1906 64.4667 95.7906 64.6C93.524 64.7333 92.1906 65.0667 91.7906 65.6C91.3906 66 91.2573 67.3333 91.3906 69.6C91.6573 72 91.8573 74.4 91.9906 76.8C92.124 79.2 92.2573 81.6 92.3906 84C92.524 85.8667 92.8573 87.0667 93.3906 87.6C93.924 88 95.1906 88 97.1906 87.6C98.2573 87.3333 99.2573 87.1333 100.191 87C101.257 86.7333 102.324 86.5333 103.391 86.4C105.657 86.1333 107.457 86.4667 108.791 87.4C110.257 88.3333 111.124 89.7333 111.391 91.6C111.791 95.4667 109.857 97.9333 105.591 99C103.991 99.2667 102.391 99.6 100.791 100C99.1906 100.267 97.6573 100.533 96.1906 100.8C94.1906 101.2 93.2573 102.4 93.3906 104.4C93.6573 106.267 93.8573 108.133 93.9906 110C94.2573 111.733 94.524 113.533 94.7906 115.4C95.1906 117.933 95.924 119.6 96.9906 120.4C98.1906 121.067 100.524 121.4 103.991 121.4Z" fill="#C0E1FF"/>
<path d="M78.1053 114.161L101.554 106" stroke="white" stroke-width="2"/>
<path d="M120.89 84.1886L130.02 88.6586L139.629 84.524L134.8 93.8033L138.587 103.237L129.457 98.7668L119.848 102.901L124.678 93.6221L120.89 84.1886Z" fill="#FEF7B8"/>
</g>
<defs>
<clipPath id="clip0_93_13">
<rect width="200" height="200" fill="white"/>
</clipPath>
</defs>
</svg>
