<svg width="200" height="200" viewBox="0 0 200 200" fill="none" xmlns="http://www.w3.org/2000/svg">
<g clip-path="url(#clip0_93_13)">
<path d="M158.439 76.1515C158.556 76.4354 158.566 76.9274 158.136 77.7523C157.712 78.567 156.934 79.5544 155.775 80.6958C153.464 82.9717 149.819 85.689 145.079 88.6703C135.614 94.6243 121.951 101.529 106.338 107.961C90.7253 114.392 76.1634 119.114 65.2507 121.555C59.7863 122.777 55.2845 123.416 52.0412 123.428C50.4147 123.434 49.1667 123.281 48.2918 123.001C47.406 122.718 47.0665 122.362 46.9495 122.078C46.8325 121.794 46.8228 121.302 47.2521 120.477C47.6761 119.663 48.4545 118.675 49.6133 117.534C51.9239 115.258 55.5697 112.541 60.3094 109.559C69.7747 103.605 83.4373 96.7005 99.0502 90.2689C114.663 83.8374 129.225 79.1155 140.138 76.675C145.602 75.453 150.104 74.8139 153.347 74.8019C154.974 74.7959 156.222 74.9486 157.097 75.2282C157.982 75.5114 158.322 75.8675 158.439 76.1515Z" stroke="white" stroke-width="2"/>
<path d="M106.6 129.4C109.8 129.133 113.133 128.333 116.6 127C120.2 125.533 123.733 124 127.2 122.4C128 122 128.8 121.667 129.6 121.4C130.4 121 131.2 120.667 132 120.4C135.067 119.733 137.267 120.667 138.6 123.2C140.067 126 139.733 128.467 137.6 130.6C136.533 131.8 135.267 132.733 133.8 133.4C129.533 135.533 125.133 137.4 120.6 139C116.2 140.6 111.6 141.733 106.8 142.4C101.333 143.2 96.7333 142.4 93 140C89.2667 137.467 86.6667 133.533 85.2 128.2C84.5333 125.533 84.0667 122.933 83.8 120.4C83.5333 117.733 83.2667 115.067 83 112.4C82.8667 111.6 82.6667 110.867 82.4 110.2C82.1333 109.533 81.6667 108.867 81 108.2C77.8 105.4 77.6 102.333 80.4 99C81.0667 98.3333 81.5333 97.6667 81.8 97C82.2 96.3333 82.3333 95.5333 82.2 94.6C81.9333 91.9333 81.7333 89.2667 81.6 86.6C81.6 83.8 81.4667 81.0667 81.2 78.4C80.9333 76.8 80.0667 75.7333 78.6 75.2C75.6667 74.4 74.1333 72.4 74 69.2C73.8667 67.7333 74.2 66.5333 75 65.6C75.8 64.5333 76.7333 63.5333 77.8 62.6C80.0667 60.6 82.4667 59.7333 85 60C87.5333 60.1333 90.0667 60.1333 92.6 60C95.6667 59.7333 98.7333 59.5333 101.8 59.4C104.867 59.2667 107.933 59.0667 111 58.8C115.8 58.6667 118.4 60.5333 118.8 64.4C119.2 68.1333 117.067 70.5333 112.4 71.6C110.133 72 107.8 72.2667 105.4 72.4C103.133 72.4 100.8 72.4667 98.4 72.6C96.1333 72.7333 94.8 73.0667 94.4 73.6C94 74 93.8667 75.3333 94 77.6C94.2667 80 94.4667 82.4 94.6 84.8C94.7333 87.2 94.8667 89.6 95 92C95.1333 93.8667 95.4667 95.0667 96 95.6C96.5333 96 97.8 96 99.8 95.6C100.867 95.3333 101.867 95.1333 102.8 95C103.867 94.7333 104.933 94.5333 106 94.4C108.267 94.1333 110.067 94.4667 111.4 95.4C112.867 96.3333 113.733 97.7333 114 99.6C114.4 103.467 112.467 105.933 108.2 107C106.6 107.267 105 107.6 103.4 108C101.8 108.267 100.267 108.533 98.8 108.8C96.8 109.2 95.8667 110.4 96 112.4C96.2667 114.267 96.4667 116.133 96.6 118C96.8667 119.733 97.1333 121.533 97.4 123.4C97.8 125.933 98.5333 127.6 99.6 128.4C100.8 129.067 103.133 129.4 106.6 129.4Z" fill="#C0E1FF"/>
<path d="M81.1053 117.161L104.554 109" stroke="white" stroke-width="2"/>
<path d="M123.89 87.1886L133.02 91.6586L142.629 87.524L137.8 96.8033L141.587 106.237L132.457 101.767L122.848 105.901L127.678 96.6221L123.89 87.1886Z" fill="#FEF7B8"/>
</g>
<defs>
<clipPath id="clip0_93_13">
<rect width="200" height="200" fill="white"/>
</clipPath>
</defs>
</svg>
