<svg width="200" height="200" viewBox="0 0 200 200" fill="none" xmlns="http://www.w3.org/2000/svg">
<g clip-path="url(#clip0_23_78)">
<path d="M179.673 64.2502C179.906 64.8171 179.864 65.6538 179.228 66.876C178.597 68.088 177.457 69.5252 175.798 71.1595C172.486 74.4213 167.282 78.2973 160.544 82.5356C147.082 91.0035 127.665 100.815 105.488 109.951C83.3103 119.087 62.6162 125.798 47.0959 129.269C39.3278 131.007 32.9033 131.921 28.255 131.938C25.926 131.947 24.105 131.729 22.8035 131.313C21.4911 130.894 20.8715 130.33 20.6379 129.763C20.4044 129.196 20.4471 128.359 21.0832 127.137C21.714 125.925 22.8534 124.488 24.5127 122.854C27.8243 119.592 33.0289 115.716 39.7668 111.477C53.2286 103.01 72.6454 93.1976 94.8229 84.0618C117 74.9261 137.695 68.2148 153.215 64.7438C160.983 63.0065 167.407 62.092 172.056 62.0748C174.385 62.0662 176.206 62.2839 177.507 62.6999C178.82 63.1194 179.439 63.6833 179.673 64.2502Z" stroke="#C0E1FF" stroke-width="2"/>
<path d="M101.9 143.1C106.7 142.7 111.7 141.5 116.9 139.5C122.3 137.3 127.6 135 132.8 132.6C134 132 135.2 131.5 136.4 131.1C137.6 130.5 138.8 130 140 129.6C144.6 128.6 147.9 130 149.9 133.8C152.1 138 151.6 141.7 148.4 144.9C146.8 146.7 144.9 148.1 142.7 149.1C136.3 152.3 129.7 155.1 122.9 157.5C116.3 159.9 109.4 161.6 102.2 162.6C94 163.8 87.1 162.6 81.5 159C75.9 155.2 72 149.3 69.8 141.3C68.8 137.3 68.1 133.4 67.7 129.6C67.3 125.6 66.9 121.6 66.5 117.6C66.3 116.4 66 115.3 65.6 114.3C65.2 113.3 64.5 112.3 63.5 111.3C58.7 107.1 58.4 102.5 62.6 97.5C63.6 96.5 64.3 95.5 64.7 94.5C65.3 93.5 65.5 92.3 65.3 90.9C64.9 86.9 64.6 82.9 64.4 78.9C64.4 74.7 64.2 70.6 63.8 66.6C63.4 64.2 62.1 62.6 59.9 61.8C55.5 60.6 53.2 57.6 53 52.8C52.8 50.6 53.3 48.8 54.5 47.4C55.7 45.8 57.1 44.3 58.7 42.9C62.1 39.9 65.7 38.6 69.5 39C73.3 39.2 77.1 39.2 80.9 39C85.5 38.6 90.1 38.3 94.7 38.1C99.3 37.9 103.9 37.6 108.5 37.2C115.7 37 119.6 39.8 120.2 45.6C120.8 51.2 117.6 54.8 110.6 56.4C107.2 57 103.7 57.4 100.1 57.6C96.7 57.6 93.2 57.7 89.6 57.9C86.2 58.1 84.2 58.6 83.6 59.4C83 60 82.8 62 83 65.4C83.4 69 83.7 72.6 83.9 76.2C84.1 79.8 84.3 83.4 84.5 87C84.7 89.8 85.2 91.6 86 92.4C86.8 93 88.7 93 91.7 92.4C93.3 92 94.8 91.7 96.2 91.5C97.8 91.1 99.4 90.8 101 90.6C104.4 90.2 107.1 90.7 109.1 92.1C111.3 93.5 112.6 95.6 113 98.4C113.6 104.2 110.7 107.9 104.3 109.5C101.9 109.9 99.5 110.4 97.1 111C94.7 111.4 92.4 111.8 90.2 112.2C87.2 112.8 85.8 114.6 86 117.6C86.4 120.4 86.7 123.2 86.9 126C87.3 128.6 87.7 131.3 88.1 134.1C88.7 137.9 89.8 140.4 91.4 141.6C93.2 142.6 96.7 143.1 101.9 143.1Z" fill="#223B61"/>
<path d="M64.5 125L87.9486 116.839" stroke="#C0E1FF" stroke-width="2"/>
<path d="M121.89 89.1886L131.02 93.6586L140.629 89.524L135.8 98.8033L139.587 108.237L130.457 103.767L120.848 107.901L125.678 98.6221L121.89 89.1886Z" fill="#FEF7B8"/>
</g>
<defs>
<clipPath id="clip0_23_78">
<rect width="200" height="200" fill="white"/>
</clipPath>
</defs>
</svg>
